# xmcd CD database file
#
# Track frame offsets:
#	150
#	19372
#	36222
#	59417
#	78640
#	95452
#	129827
#
# Disc length: 4440 seconds
#
# Revision: 11
# Processed by: cddbd v1.5.1PL2 Copyright (c) Steve Scherf et al.
# Submitted via: CDex 1.51
#
DISCID=56115607
DTITLE=BoA - DO THE MOTION
DYEAR=2005
DGENRE=JPop
TTITLE0=DO THE MOTION
TTITLE1=With U
TTITLE2=キミのとなりで
TTITLE3=DO THE MOTION(TV MIX)
TTITLE4=With U(TV MIX)
TTITLE5=キミのとなりで(TV MIX)
TTITLE6=CCCD orz
EXTD=YEAR: 2005
EXTT0=
EXTT1=
EXTT2=
EXTT3=
EXTT4=
EXTT5=
EXTT6=
PLAYORDER=
